<svg xmlns="http://www.w3.org/2000/svg" width="256" height="60">
    <style>
        .text {
            font-family: -apple-system, "system-ui", "Segoe UI", "Noto Sans", Helvetica, Arial, sans-serif;
            font-size: 116px;
            font-weight: 500;
            fill: #ffffff;
        }
    </style>
    <g transform="scale(0.25, 0.25)">
        <rect width="1024" height="240" fill="rgb(35, 134, 54)" rx="24" stroke-width="4" stroke="rgb(35, 134, 54)"></rect>
        <path fill="rgb(255, 255, 255)" transform="translate(32, 20)" d="M112.287 10.358c5.613 9.855 2.2 22.409-7.623 28.04L43.586 73.41a5.2 5.2 0 0 0-2.614 4.51V132.9c0 1.864.997 3.584 2.614 4.511l48.326 27.703a5.202 5.202 0 0 0 5.176 0l48.326-27.703a5.199 5.199 0 0 0 2.614-4.511v-34.19l-43.461 24.6c-9.854 5.577-22.35 2.085-27.909-7.8-5.56-9.885-2.079-22.42 7.775-27.997l62.187-35.2C165.563 41.592 189 55.322 189 77.14v59.926c0 14.036-7.497 26.996-19.645 33.96l-55.511 31.821a38.883 38.883 0 0 1-38.688 0l-55.51-31.821C7.496 164.062 0 151.102 0 137.066V73.754c0-14.036 7.497-26.996 19.645-33.96L84.336 2.712c9.823-5.63 22.337-2.207 27.951 7.647Z" clip-rule="evenodd"></path>
        <text x="256" y="156" class="text">Open in Gitpod</text>
    </g>
</svg>
